<svg width="30" height="30" xmlns="http://www.w3.org/2000/svg">
 <title/>

 <g>
  <title>background</title>
  <rect fill="none" id="canvas_background" height="402" width="582" y="-1" x="-1"/>
 </g>
 <g>
  <title>Layer 1</title>
  <g id="interface-solid-multimedia-pause-button-1">
   <path id="svg_1" fill="none" d="m15,2.5a12.5,12.5 0 1 0 12.5,12.5a12.51408,12.51408 0 0 0 -12.5,-12.5zm-1.69629,16.42871a1.25,1.25 0 0 1 -2.5,0l0,-7.85742a1.25,1.25 0 0 1 2.5,0l0,7.85742zm5.89258,-7.85742a1.25,1.25 0 0 1 -2.5,0l0,0a1.25,1.25 0 0 1 2.5,0z"/>
   <path fill="#1365bb" id="svg_2" d="m15,0a15,15 0 1 0 15,15a15.01672,15.01672 0 0 0 -15,-15zm0,27.5a12.5,12.5 0 1 1 12.5,-12.5a12.51408,12.51408 0 0 1 -12.5,12.5z"/>
   <path fill="#1365bb" id="svg_3" d="m12.05371,9.82129a1.24991,1.24991 0 0 0 -1.25,1.25l0,7.85742a1.25,1.25 0 0 0 2.5,0l0,-7.85742a1.24991,1.24991 0 0 0 -1.25,-1.25z"/>
   <path fill="#1365bb" id="svg_4" d="m17.94629,9.82129a1.24991,1.24991 0 0 0 -1.25,1.25l0,7.85742a1.25,1.25 0 0 0 2.5,0l0,-7.85742a1.24991,1.24991 0 0 0 -1.25,-1.25z"/>
  </g>
 </g>
</svg>